{
  "accessors": [
    {
      "bufferView": 2,
      "componentType": 5126,
      "count": 65532,
      "max": [
        4.90769624710083,
        2.3599424362182617,
        2.3909757137298584
      ],
      "min": [
        -0.9999814629554749,
        -2.3575527667999268,
        -2.393268585205078
      ],
      "type": "VEC3"
    },
    {
      "bufferView": 2,
      "byteOffset": 786384,
      "componentType": 5126,
      "count": 65532,
      "type": "VEC3"
    },
    {
      "bufferView": 1,
      "componentType": 5126,
      "count": 65532,
      "type": "VEC2"
    },
    {
      "bufferView": 0,
      "componentType": 5125,
      "count": 363069,
      "type": "SCALAR"
    },
    {
      "bufferView": 2,
      "byteOffset": 1572768,
      "componentType": 5126,
      "count": 31646,
      "max": [
        4.90769624710083,
        2.3599424362182617,
        2.393268585205078
      ],
      "min": [
        -0.6165686845779419,
        -2.3599424362182617,
        -2.393268585205078
      ],
      "type": "VEC3"
    },
    {
      "bufferView": 2,
      "byteOffset": 1952520,
      "componentType": 5126,
      "count": 31646,
      "type": "VEC3"
    },
    {
      "bufferView": 1,
      "byteOffset": 524256,
      "componentType": 5126,
      "count": 31646,
      "type": "VEC2"
    },
    {
      "bufferView": 0,
      "byteOffset": 1452276,
      "componentType": 5125,
      "count": 105795,
      "type": "SCALAR"
    },
    {
      "bufferView": 2,
      "byteOffset": 2332272,
      "componentType": 5126,
      "count": 13916,
      "max": [
        -0.029459211975336075,
        0.8692805171012878,
        0.8509812355041504
      ],
      "min": [
        -0.31561630964279175,
        -0.8692805171012878,
        -0.8509812355041504
      ],
      "type": "VEC3"
    },
    {
      "bufferView": 2,
      "byteOffset": 2499264,
      "componentType": 5126,
      "count": 13916,
      "type": "VEC3"
    },
    {
      "bufferView": 1,
      "byteOffset": 777424,
      "componentType": 5126,
      "count": 13916,
      "type": "VEC2"
    },
    {
      "bufferView": 0,
      "byteOffset": 1875456,
      "componentType": 5125,
      "count": 38304,
      "type": "SCALAR"
    },
    {
      "bufferView": 2,
      "byteOffset": 2666256,
      "componentType": 5126,
      "count": 11520,
      "max": [
        0.5606776475906372,
        1.0289342403411865,
        1.016969919204712
      ],
      "min": [
        0.46308162808418274,
        -1.0289342403411865,
        -1.016969919204712
      ],
      "type": "VEC3"
    },
    {
      "bufferView": 2,
      "byteOffset": 2804496,
      "componentType": 5126,
      "count": 11520,
      "type": "VEC3"
    },
    {
      "bufferView": 1,
      "byteOffset": 888752,
      "componentType": 5126,
      "count": 11520,
      "type": "VEC2"
    },
    {
      "bufferView": 0,
      "byteOffset": 2028672,
      "componentType": 5125,
      "count": 27360,
      "type": "SCALAR"
    }
  ],
  "asset": {
    "generator": "fab-model-conversion",
    "version": "2.0"
  },
  "bufferViews": [
    {
      "buffer": 0,
      "byteLength": 2138112,
      "target": 34963
    },
    {
      "buffer": 0,
      "byteLength": 980912,
      "byteOffset": 2138112,
      "byteStride": 8,
      "target": 34962
    },
    {
      "buffer": 0,
      "byteLength": 2942736,
      "byteOffset": 3119024,
      "byteStride": 12,
      "target": 34962
    }
  ],
  "buffers": [
    {
      "byteLength": 6061760,
      "uri": "scene.bin"
    }
  ],
  "extensionsUsed": [
    "KHR_materials_specular"
  ],
  "images": [
    {
      "uri": "textures/Material.001_baseColor.jpeg"
    }
  ],
  "materials": [
    {
      "doubleSided": true,
      "extensions": {
        "KHR_materials_specular": {
          "specularColorFactor": [
            1.0,
            1.0,
            1.0
          ],
          "specularFactor": 0.5306851139120442
        }
      },
      "name": "Material.001",
      "pbrMetallicRoughness": {
        "baseColorTexture": {
          "index": 0
        },
        "roughnessFactor": 0.11666484261471766
      }
    },
    {
      "doubleSided": true,
      "name": "Material.003",
      "pbrMetallicRoughness": {
        "baseColorFactor": [
          0.23944218220440913,
          0.08362072871498433,
          0.04096361248284991,
          1.0
        ],
        "roughnessFactor": 0.29298986435133667
      }
    },
    {
      "doubleSided": true,
      "name": "Material.004",
      "pbrMetallicRoughness": {
        "baseColorFactor": [
          0.23955199999999996,
          0.15690699999999996,
          0.10860200000000002,
          1.0
        ],
        "roughnessFactor": 0.33555107649465854
      }
    }
  ],
  "meshes": [
    {
      "name": "Cube_Material.001_0",
      "primitives": [
        {
          "attributes": {
            "NORMAL": 1,
            "POSITION": 0,
            "TEXCOORD_0": 2
          },
          "indices": 3,
          "material": 0,
          "mode": 4
        }
      ]
    },
    {
      "name": "Cube_Material.001_0",
      "primitives": [
        {
          "attributes": {
            "NORMAL": 5,
            "POSITION": 4,
            "TEXCOORD_0": 6
          },
          "indices": 7,
          "material": 0,
          "mode": 4
        }
      ]
    },
    {
      "name": "Cube_Material.003_0",
      "primitives": [
        {
          "attributes": {
            "NORMAL": 9,
            "POSITION": 8,
            "TEXCOORD_0": 10
          },
          "indices": 11,
          "material": 1,
          "mode": 4
        }
      ]
    },
    {
      "name": "Cube_Material.004_0",
      "primitives": [
        {
          "attributes": {
            "NORMAL": 13,
            "POSITION": 12,
            "TEXCOORD_0": 14
          },
          "indices": 15,
          "material": 2,
          "mode": 4
        }
      ]
    }
  ],
  "nodes": [
    {
      "children": [
        1
      ],
      "matrix": [
        1.0,
        0.0,
        0.0,
        0.0,
        0.0,
        2.220446049250313e-16,
        -1.0,
        0.0,
        0.0,
        1.0,
        2.220446049250313e-16,
        0.0,
        0.0,
        0.0,
        0.0,
        1.0
      ],
      "name": "Sketchfab_model"
    },
    {
      "children": [
        2
      ],
      "matrix": [
        1.0,
        0.0,
        0.0,
        0.0,
        0.0,
        0.0,
        1.0,
        0.0,
        0.0,
        -1.0,
        0.0,
        0.0,
        0.0,
        0.0,
        0.0,
        1.0
      ],
      "name": "42d6b07b4161410a93e9847421020158.fbx"
    },
    {
      "children": [
        3
      ],
      "name": "RootNode"
    },
    {
      "children": [
        4,
        5,
        6,
        7
      ],
      "matrix": [
        -26.44316512028756,
        5.551115546642256e-15,
        -96.44045076781924,
        0.0,
        -96.44045076781742,
        1.9470720378242506e-05,
        26.443165120287073,
        0.0,
        1.8777647625700666e-05,
        99.9999999999981,
        -5.1486739316430885e-06,
        0.0,
        583.3546142578125,
        0.0,
        400.0267028808594,
        1.0
      ],
      "name": "Cube"
    },
    {
      "mesh": 0,
      "name": "Cube_Material.001_0"
    },
    {
      "mesh": 1,
      "name": "Cube_Material.001_0"
    },
    {
      "mesh": 2,
      "name": "Cube_Material.003_0"
    },
    {
      "mesh": 3,
      "name": "Cube_Material.004_0"
    }
  ],
  "samplers": [
    {
      "magFilter": 9729,
      "minFilter": 9987,
      "wrapS": 10497,
      "wrapT": 10497
    }
  ],
  "scene": 0,
  "scenes": [
    {
      "name": "Sketchfab_Scene",
      "nodes": [
        0
      ]
    }
  ],
  "textures": [
    {
      "sampler": 0,
      "source": 0
    }
  ]
}
